<svg id="グループ_1719" data-name="グループ 1719" xmlns="http://www.w3.org/2000/svg" xmlns:xlink="http://www.w3.org/1999/xlink" width="103.241" height="32.768" viewBox="0 0 103.241 32.768">
  <defs>
    <clipPath id="clip-path">
      <rect id="長方形_210" data-name="長方形 210" width="103.241" height="32.768" fill="none"/>
    </clipPath>
  </defs>
  <path id="パス_254" data-name="パス 254" d="M90.2,25.128l4,8.261V25.128h1.1V35.584H94.037l-4.358-8.9v8.9h-1.1V25.128Z" transform="translate(-47.646 -13.547)" fill="#fff"/>
  <g id="グループ_837" data-name="グループ 837">
    <g id="グループ_836" data-name="グループ 836" clip-path="url(#clip-path)">
      <path id="パス_255" data-name="パス 255" d="M118.908,24.8c1.728.529,2.615,2.319,2.615,5.277,0,3.5-1.292,5.4-3.673,5.4a3.726,3.726,0,0,1-1.1-.155,3.062,3.062,0,0,1-1.992-1.837,8.553,8.553,0,0,1-.623-3.378,6.678,6.678,0,0,1,1.308-4.514,3.322,3.322,0,0,1,2.459-.934,3.625,3.625,0,0,1,1.012.14m-1.821,1.012c-1.074.389-1.65,1.869-1.65,4.249a13.246,13.246,0,0,0,.078,1.433c.264,1.992,1,2.941,2.3,2.941a2.224,2.224,0,0,0,.747-.108c1.058-.358,1.65-1.884,1.65-4.266a12.712,12.712,0,0,0-.078-1.416c-.265-1.992-1-2.941-2.288-2.941a2.2,2.2,0,0,0-.762.108" transform="translate(-61.361 -13.256)" fill="#fff"/>
      <path id="パス_256" data-name="パス 256" d="M140.5,25.128l2.272,8.577,2.241-8.577h1.2L143.318,35.51h-1.276L139.21,25.128Z" transform="translate(-74.845 -13.509)" fill="#fff"/>
      <path id="パス_257" data-name="パス 257" d="M170.526,25.128v1.043h-4.373v3.44h3.455v1.043h-3.455v3.813h4.5V35.51h-5.758V25.128Z" transform="translate(-88.653 -13.509)" fill="#fff"/>
      <path id="パス_258" data-name="パス 258" d="M189.715,25.128v9.339h3.937V35.51h-5.2V25.128Z" transform="translate(-101.321 -13.509)" fill="#fff"/>
      <path id="パス_259" data-name="パス 259" d="M213.845,27.583c-.451-1.385-1-1.868-2.085-1.868a2.614,2.614,0,0,0-.607.078,1.565,1.565,0,0,0-1.121,1.541,1.5,1.5,0,0,0,.062.451c.2.639.56.888,2.241,1.525a6.34,6.34,0,0,1,2.086,1.121,2.774,2.774,0,0,1,.856,2.008,3.06,3.06,0,0,1-3.315,3.035,3.791,3.791,0,0,1-2.552-.887,3.391,3.391,0,0,1-1.027-2.071l1.152-.311a2.971,2.971,0,0,0,.7,1.51,2.333,2.333,0,0,0,1.759.7,2.726,2.726,0,0,0,.622-.062,1.723,1.723,0,0,0,1.354-1.713c0-.949-.514-1.463-2.039-2.054a5.935,5.935,0,0,1-2.21-1.12A2.85,2.85,0,0,1,208.8,27.4a2.8,2.8,0,0,1,3.066-2.739,3.225,3.225,0,0,1,1.058.155,3.09,3.09,0,0,1,2.039,2.444Z" transform="translate(-112.035 -13.256)" fill="#fff"/>
      <rect id="長方形_208" data-name="長方形 208" width="33" height="33" transform="translate(-0.01)" fill="#fff"/>
      <path id="パス_260" data-name="パス 260" d="M11.675,33.431V23.722H13.94a4.025,4.025,0,0,1,3.09,1.408,5.264,5.264,0,0,1,0,6.877,4.006,4.006,0,0,1-3.09,1.424Zm1.618-8.091v6.473h.647a2.277,2.277,0,0,0,1.828-.947,3.815,3.815,0,0,0,0-4.571,2.271,2.271,0,0,0-1.828-.955Z" transform="translate(-6.277 -12.753)" fill="#111"/>
      <path id="パス_261" data-name="パス 261" d="M34.791,27.1,37.363,30.7l-1.972,0-2.335-3.233-1.195,0V30.7H30.244V20.986h3.074a3.232,3.232,0,0,1,2.751,4.936A3.2,3.2,0,0,1,34.791,27.1m-1.473-1.262a1.618,1.618,0,1,0,0-3.236H31.862v3.236Z" transform="translate(-16.261 -11.282)" fill="#111"/>
      <path id="パス_262" data-name="パス 262" d="M48.693,27.961V18.252h4.854V19.87H50.31v1.942h3.236V23.43H50.31v2.913h3.236v1.618Z" transform="translate(-26.179 -9.812)" fill="#111"/>
      <rect id="長方形_209" data-name="長方形 209" width="21.969" height="1.935" transform="translate(5.398 22.394)" fill="#d11"/>
    </g>
  </g>
</svg>
