<svg xmlns="http://www.w3.org/2000/svg" viewBox="0 0 236.46 37.08"><g stroke-width="0"><path d="M16.85 36.42c-.14 0-.26-.12-.26-.26v-4.74H2.45c-.14 0-.26-.12-.26-.26V19.58c0-.14.12-.26.26-.26h33.49c.14 0 .26.12.26.26v11.58c0 .14-.12.26-.26.26H21.79v1.34h16.33c.14 0 .26.12.26.26v3.14c0 .14-.12.26-.26.26H16.85zm14.06-8.09v-1.46h-9.12v1.46h9.12zm-14.32 0v-1.46H7.47v1.46h9.12zm14.32-4.55v-1.42h-9.12v1.42h9.12zm-14.32 0v-1.42H7.47v1.42h9.12zm.35-5.85c-.14 0-.26-.12-.26-.26V9.33H4.55v6.65c0 .14-.12.26-.26.26H.26c-.14 0-.26-.12-.26-.26V6.13c0-.14.12-.26.26-.26h16.42v-1.5H1.33c-.14 0-.26-.12-.26-.26V.88c0-.14.12-.26.26-.26H37c.14 0 .26.12.26.26v3.23c0 .14-.12.26-.26.26H21.74v1.5h16.33c.14 0 .26.12.26.26v9.84c0 .14-.12.26-.26.26h-4.03c-.14 0-.26-.12-.26-.26V9.32H21.74v8.34c0 .14-.12.26-.26.26h-4.54zm6.6-.04c-.14 0-.26-.12-.26-.26v-2.32c0-.14.12-.26.26-.26h8.62c.14 0 .26.12.26.26v2.32c0 .14-.12.26-.26.26h-8.62zm-17.28 0c-.14 0-.26-.12-.26-.26v-2.32c0-.14.12-.26.26-.26h8.66c.14 0 .26.12.26.26v2.32c0 .14-.12.26-.26.26H6.26zm17.28-4.26c-.14 0-.26-.12-.26-.26v-2.32c0-.14.12-.26.26-.26h8.62c.14 0 .26.12.26.26v2.32c0 .14-.12.26-.26.26h-8.62zm-17.28 0c-.14 0-.26-.12-.26-.26v-2.32c0-.14.12-.26.26-.26h8.66c.14 0 .26.12.26.26v2.32c0 .14-.12.26-.26.26H6.26zM55.1 37.04c-.14 0-.26-.12-.26-.26v-2.73c0-.14.12-.26.26-.26h4.28v-1.34H43.13c-.14 0-.26-.12-.26-.26v-2.36c0-.14.12-.26.26-.26h16.25v-1.22H44.21c-.14 0-.26-.12-.26-.26v-2.32c0-.14.12-.26.26-.26h15.17v-1.45l-13.37.53c-.07 0-.13-.03-.18-.07a.273.273 0 01-.08-.19v-2.44c0-.14.11-.25.25-.26l17.81-.73a.261.261 0 01-.1-.2v-3.14c0-.11.07-.21.17-.25l2.31-.83-.72-.25a.272.272 0 01-.17-.25v-2.97h-1.37c-.14 0-.26-.12-.26-.26V9.81c0-.14.12-.26.26-.26h15.95c.14 0 .26.12.26.26v4.38c0 .11-.07.2-.16.24l-4 1.59 5.06 1.64c.11.03.18.13.18.25v3.14c0 .08-.04.16-.11.21a.27.27 0 01-.15.05c-.03 0-.06 0-.08-.01l-2.5-.82s.01.05.01.08v2.52c0 .14-.11.26-.25.26l-13.34.53v1.64h15.09c.14 0 .26.12.26.26v2.32c0 .14-.12.26-.26.26H64.8v1.22h16.16c.14 0 .26.12.26.26v2.36c0 .14-.12.26-.26.26H64.8v4.33c0 .14-.12.26-.26.26h-9.43zm9.11-16.16l13.65-.56-6.8-2.24-6.85 2.81zm7.22-6.29l4.45-1.57h-9.41l4.96 1.57zm-20.66 6.36c-.14 0-.26-.12-.26-.26v-1.15h-7.37c-.14 0-.26-.12-.26-.26v-2.65c0-.14.12-.26.26-.26h7.37v-1.22h-6.3c-.14 0-.26-.12-.26-.26v-9c0-.14.12-.26.26-.26h6.3V4.42h-7.37c-.14 0-.26-.12-.26-.26V1.5c0-.14.12-.26.26-.26h7.37V.26c0-.14.12-.26.26-.26h4.63c.14 0 .26.12.26.26v.98h7.37c.14 0 .26.12.26.26v2.65c0 .14-.12.26-.26.26h-7.37v1.21h6.3c.14 0 .26.12.26.26v9.02c0 .14-.12.26-.26.26h-6.3v1.22h7.37c.14 0 .26.12.26.26v2.65c0 .14-.12.26-.26.26h-7.37v1.15c0 .14-.12.26-.26.26h-4.63zm7.24-8.17v-1.17h-3.17v1.17h3.17zm-6.64 0v-1.17H48.2v1.17h3.17zm6.64-3.6V8.01h-3.17v1.17h3.17zm-6.64 0V8.01H48.2v1.17h3.17zm12.61-.14c-.08 0-.16-.04-.2-.1s-.07-.14-.05-.22l1.84-7.9c.03-.12.13-.2.25-.2h12.35c.14 0 .26.12.26.26v4.08h2.53c.14 0 .26.12.26.26v3.39c0 .14-.12.26-.26.26h-6.73c-.14 0-.26-.12-.26-.26V4.4h-4.72l-1.03 4.43c-.03.12-.13.2-.25.2h-3.99z" fill="#e61673"/><path d="M86.07 35.61c-.14 0-.26-.12-.26-.26V14.69c0-.14.12-.26.26-.26h21.71c.14 0 .26.12.26.26v20.63c0 .14-.12.26-.26.26h-7.4c-.14 0-.26-.12-.26-.26v-3.13c0-.14.12-.26.26-.26h3.78V18.08h-5.52v17.27c0 .14-.12.26-.26.26H86.06zm8.97-3.68V18.08h-5.39v13.85h5.39z" fill="#231815"/><path d="M131.54 37.04a.26.26 0 01-.21-.11l-6.64-9.23v9.08c0 .14-.12.26-.26.26h-4.67c-.14 0-.26-.12-.26-.26v-9.15l-6.64 9.3a.26.26 0 01-.21.11c-.03 0-.05 0-.08-.01-.11-.03-.18-.14-.18-.25v-6.37c0-.06.02-.11.05-.16l4.58-6.12h-4.37c-.14 0-.26-.12-.26-.26v-4.22c0-.14.12-.26.26-.26h6.86v-2.83h-6.86c-.14 0-.26-.12-.26-.26v-4.14c0-.14.12-.26.26-.26h1.93V6.71h-1.93c-.14 0-.26-.12-.26-.26V2.37c0-.14.12-.26.26-.26h6.77V.26c0-.14.12-.26.26-.26h4.89c.14 0 .26.12.26.26v1.85h6.73c.14 0 .26.12.26.26v4.09c0 .14-.12.26-.26.26h-1.71v5.19h1.71c.14 0 .26.12.26.26v4.14c0 .14-.12.26-.26.26h-6.86v2.83h6.86c.14 0 .26.12.26.26v4.22c0 .14-.12.26-.26.26h-4.41l4.62 6.12s.05.1.05.16v6.37c0 .11-.07.21-.18.25-.03 0-.05.01-.08.01zm-6.35-25.13V6.72h-6.04v5.19h6.04zm18.18 25.13c-.14 0-.26-.12-.26-.26V16.07h-4.41v3.79l-1.5 16.94c-.01.13-.12.24-.26.24h-4.46c-.07 0-.14-.03-.19-.08a.288.288 0 01-.07-.2l1.42-16.92V1.25c0-.14.11-.25.24-.26L149.89 0c.07 0 .13.03.18.07.05.05.08.12.08.19v4.22c0 .14-.11.25-.24.26l-11.2.73v5.7h11.74c.14 0 .26.12.26.26v4.38c0 .14-.12.26-.26.26h-2.44v20.71c0 .14-.12.26-.26.26h-4.37zm43.14.04c-.07 0-.13-.03-.18-.07l-12.46-11.9-11.18 11.88c-.05.05-.12.08-.19.08h-6.99c-.1 0-.2-.06-.24-.16-.04-.1-.02-.21.05-.28l14.65-15.28-10.01-9.5a.26.26 0 01-.06-.29c.04-.1.14-.16.24-.16h6.69c.07 0 .13.02.18.07l6.59 6.15 8.53-8.89h-26.1c-.14 0-.26-.12-.26-.26V3.74c0-.14.12-.26.26-.26h15.47V.26c0-.14.12-.26.26-.26h5.32c.14 0 .26.12.26.26v3.21h15.69c.14 0 .26.12.26.26v4.76c0 .14-.12.26-.26.26h-3.66L177.49 21.3l16.19 15.33c.08.07.1.19.06.29a.26.26 0 01-.24.16h-6.99zm13.16-.53c-.14 0-.26-.12-.26-.26v-4.51s.01-.1.04-.14l4.43-7.17h-5.49c-.14 0-.26-.12-.26-.26v-4.18c0-.14.12-.26.26-.26h37.82c.14 0 .26.12.26.26v4.18c0 .14-.12.26-.26.26h-25.62l-4.35 7.05h22.19l-1.94-5.61a.29.29 0 01.03-.24.26.26 0 01.21-.11h5.62c.11 0 .21.07.25.18l3.64 10.46a.257.257 0 01-.24.35h-36.32zm-.21-20.48c-.14 0-.26-.12-.26-.26v-4.22c0-.14.12-.26.26-.26h35.67c.14 0 .26.12.26.26v4.22c0 .14-.12.26-.26.26h-35.67zm24.09-6.45c-.14 0-.26-.12-.26-.26V7.51h-12v1.85c0 .14-.12.26-.26.26h-4.93c-.14 0-.26-.12-.26-.26V7.51h-7.46c-.14 0-.26-.12-.26-.26V3.07c0-.14.12-.26.26-.26h7.46V.26c0-.14.12-.26.26-.26h4.93c.14 0 .26.12.26.26v2.55h12V.26c0-.14.12-.26.26-.26h4.97c.14 0 .26.12.26.26v2.55h7.41c.14 0 .26.12.26.26v4.18c0 .14-.12.26-.26.26h-7.41v1.85c0 .14-.12.26-.26.26h-4.97z"/></g></svg>